<svg width="106" height="106" viewBox="0 0 106 106" fill="none" xmlns="http://www.w3.org/2000/svg">
<g clip-path="url(#clip0_1_15543)">
<path d="M53 5.88867C43.6823 5.88867 34.5738 8.65169 26.8265 13.8283C19.0791 19.005 13.0407 26.3627 9.475 34.9711C5.90927 43.5796 4.97631 53.052 6.7941 62.1907C8.6119 71.3294 13.0988 79.7238 19.6874 86.3124C26.276 92.901 34.6704 97.3879 43.8091 99.2057C52.9477 101.023 62.4202 100.091 71.0286 96.5248C79.6371 92.9591 86.9948 86.9207 92.1714 79.1733C97.3481 71.4259 100.111 62.3175 100.111 52.9998C100.111 40.5051 95.1476 28.5222 86.3126 19.6872C77.4775 10.8522 65.4946 5.88867 53 5.88867ZM53 94.222C44.847 94.222 36.8771 91.8044 30.0981 87.2748C23.3192 82.7453 18.0356 76.3072 14.9156 68.7748C11.7956 61.2425 10.9793 52.9541 12.5698 44.9577C14.1604 36.9614 18.0864 29.6163 23.8515 23.8513C29.6165 18.0862 36.9616 14.1602 44.9579 12.5696C52.9543 10.9791 61.2427 11.7954 68.7751 14.9154C76.3074 18.0354 82.7455 23.319 87.275 30.0979C91.8046 36.8769 94.2222 44.8468 94.2222 52.9998C94.2222 63.9326 89.8792 74.4176 82.1485 82.1483C74.4178 89.879 63.9328 94.222 53 94.222Z" fill="#009A33"/>
<path d="M82.4445 35.6277C81.8928 35.0793 81.1465 34.7715 80.3686 34.7715C79.5908 34.7715 78.8445 35.0793 78.2928 35.6277L45.6095 68.1638L27.9428 50.4972C27.404 49.9154 26.6561 49.5715 25.8637 49.5411C25.0713 49.5107 24.2993 49.7964 23.7175 50.3352C23.1357 50.874 22.7918 51.6219 22.7615 52.4143C22.7311 53.2067 23.0168 53.9787 23.5556 54.5605L45.6095 76.5555L82.4445 39.8088C82.7205 39.5351 82.9395 39.2094 83.089 38.8506C83.2385 38.4918 83.3154 38.107 83.3154 37.7183C83.3154 37.3296 83.2385 36.9447 83.089 36.5859C82.9395 36.2271 82.7205 35.9014 82.4445 35.6277Z" fill="#009A33"/>
</g>
<defs>
<clipPath id="clip0_1_15543">
<rect width="106" height="106" fill="white"/>
</clipPath>
</defs>
</svg>
